<?xml version="1.0" encoding="UTF-8"?>
<svg xmlns="http://www.w3.org/2000/svg" width="440pt" height="322pt" viewBox="0 0 440 322">
  <rect width="440" height="322" fill="#FFFFFF"/>
  <text x="120.0" y="15.0" font-family="'Noto Sans CJK SC', 'Source Han Sans SC', sans-serif" font-size="8.8" font-weight="bold" fill="#222222" text-anchor="middle" opacity="1.0">一、前后对比</text>
  <defs><marker id="ah1" markerWidth="6" markerHeight="6" refX="5.2" refY="3" orient="auto"><path d="M0,0.6 L5.6,3 L0,5.4 z" fill="#333333"/></marker></defs>
  <line x1="44.0" y1="104.0" x2="44.0" y2="14.0" stroke="#333333" stroke-width="1.1" marker-end="url(#ah1)"/>
  <defs><marker id="ah3" markerWidth="6" markerHeight="6" refX="5.2" refY="3" orient="auto"><path d="M0,0.6 L5.6,3 L0,5.4 z" fill="#333333"/></marker></defs>
  <line x1="44.0" y1="104.0" x2="220.0" y2="104.0" stroke="#333333" stroke-width="1.1" marker-end="url(#ah3)"/>
  <line x1="129.0" y1="14.0" x2="129.0" y2="104.0" stroke="#1A3A5C" stroke-width="1.2" stroke-dasharray="3.2,2.4" opacity="1.0"/>
  <text x="218.0" y="117.0" font-family="'Noto Sans CJK SC', 'Source Han Sans SC', sans-serif" font-size="7.6" fill="#666666" text-anchor="end" opacity="1.0">时间</text>
  <line x1="44.0" y1="85.5" x2="78.0" y2="80.5" stroke="#333333" stroke-width="1.4" opacity="1.0"/>
  <line x1="78.0" y1="80.5" x2="103.5" y2="76.3" stroke="#333333" stroke-width="1.4" opacity="1.0"/>
  <line x1="103.5" y1="76.3" x2="125.6" y2="72.1" stroke="#333333" stroke-width="1.4" opacity="1.0"/>
  <line x1="125.6" y1="72.1" x2="132.4" y2="65.4" stroke="#333333" stroke-width="1.4" opacity="1.0"/>
  <line x1="132.4" y1="65.4" x2="163.0" y2="57.8" stroke="#333333" stroke-width="1.4" opacity="1.0"/>
  <line x1="163.0" y1="57.8" x2="188.5" y2="53.6" stroke="#333333" stroke-width="1.4" opacity="1.0"/>
  <line x1="188.5" y1="53.6" x2="214.0" y2="48.6" stroke="#333333" stroke-width="1.4" opacity="1.0"/>
  <line x1="47.4" y1="78.8" x2="125.6" y2="78.8" stroke="#8E959E" stroke-width="1.1" stroke-dasharray="3.4,2.4" opacity="1.0"/>
  <line x1="132.4" y1="58.2" x2="210.6" y2="58.2" stroke="#8E959E" stroke-width="1.1" stroke-dasharray="3.4,2.4" opacity="1.0"/>
  <defs><marker id="ah16" markerWidth="6" markerHeight="6" refX="5.2" refY="3" orient="auto"><path d="M0,0.6 L5.6,3 L0,5.4 z" fill="#1A3A5C"/></marker></defs>
  <line x1="197.0" y1="78.8" x2="197.0" y2="58.2" stroke="#1A3A5C" stroke-width="1.2" marker-end="url(#ah16)"/>
  <defs><marker id="ah18" markerWidth="6" markerHeight="6" refX="5.2" refY="3" orient="auto"><path d="M0,0.6 L5.6,3 L0,5.4 z" fill="#1A3A5C"/></marker></defs>
  <line x1="197.0" y1="58.2" x2="197.0" y2="78.8" stroke="#1A3A5C" stroke-width="1.2" marker-end="url(#ah18)"/>
  <text x="194.4" y="51.9" font-family="'Noto Sans CJK SC', 'Source Han Sans SC', sans-serif" font-size="7.8" fill="#1A3A5C" text-anchor="end" opacity="1.0">效果</text>
  <text x="129.0" y="134.0" font-family="'Noto Sans CJK SC', 'Source Han Sans SC', sans-serif" font-size="7.6" fill="#666666" text-anchor="middle" opacity="1.0">失效情形：把其他因素算作政策效果</text>
  <text x="328.0" y="15.0" font-family="'Noto Sans CJK SC', 'Source Han Sans SC', sans-serif" font-size="8.8" font-weight="bold" fill="#222222" text-anchor="middle" opacity="1.0">二、投射—实施对比</text>
  <defs><marker id="ah23" markerWidth="6" markerHeight="6" refX="5.2" refY="3" orient="auto"><path d="M0,0.6 L5.6,3 L0,5.4 z" fill="#333333"/></marker></defs>
  <line x1="252.0" y1="104.0" x2="252.0" y2="14.0" stroke="#333333" stroke-width="1.1" marker-end="url(#ah23)"/>
  <defs><marker id="ah25" markerWidth="6" markerHeight="6" refX="5.2" refY="3" orient="auto"><path d="M0,0.6 L5.6,3 L0,5.4 z" fill="#333333"/></marker></defs>
  <line x1="252.0" y1="104.0" x2="428.0" y2="104.0" stroke="#333333" stroke-width="1.1" marker-end="url(#ah25)"/>
  <line x1="337.0" y1="14.0" x2="337.0" y2="104.0" stroke="#1A3A5C" stroke-width="1.2" stroke-dasharray="3.2,2.4" opacity="1.0"/>
  <text x="426.0" y="117.0" font-family="'Noto Sans CJK SC', 'Source Han Sans SC', sans-serif" font-size="7.6" fill="#666666" text-anchor="end" opacity="1.0">时间</text>
  <line x1="252.0" y1="83.8" x2="294.5" y2="76.3" stroke="#333333" stroke-width="1.4" opacity="1.0"/>
  <line x1="294.5" y1="76.3" x2="333.6" y2="68.7" stroke="#333333" stroke-width="1.4" opacity="1.0"/>
  <line x1="340.4" y1="67.0" x2="384.6" y2="59.1" stroke="#8E959E" stroke-width="1.2" stroke-dasharray="3.4,2.4" opacity="1.0"/>
  <line x1="384.6" y1="59.1" x2="422.0" y2="52.8" stroke="#8E959E" stroke-width="1.2" stroke-dasharray="3.4,2.4" opacity="1.0"/>
  <line x1="340.4" y1="62.0" x2="379.5" y2="51.9" stroke="#333333" stroke-width="1.4" opacity="1.0"/>
  <line x1="379.5" y1="51.9" x2="422.0" y2="36.8" stroke="#333333" stroke-width="1.4" opacity="1.0"/>
  <defs><marker id="ah35" markerWidth="6" markerHeight="6" refX="5.2" refY="3" orient="auto"><path d="M0,0.6 L5.6,3 L0,5.4 z" fill="#1A3A5C"/></marker></defs>
  <line x1="401.6" y1="56.4" x2="401.6" y2="43.1" stroke="#1A3A5C" stroke-width="1.2" marker-end="url(#ah35)"/>
  <defs><marker id="ah37" markerWidth="6" markerHeight="6" refX="5.2" refY="3" orient="auto"><path d="M0,0.6 L5.6,3 L0,5.4 z" fill="#1A3A5C"/></marker></defs>
  <line x1="401.6" y1="43.1" x2="401.6" y2="56.4" stroke="#1A3A5C" stroke-width="1.2" marker-end="url(#ah37)"/>
  <text x="399.1" y="43.5" font-family="'Noto Sans CJK SC', 'Source Han Sans SC', sans-serif" font-size="7.8" fill="#1A3A5C" text-anchor="end" opacity="1.0">效果</text>
  <text x="420.3" y="62.0" font-family="'Noto Sans CJK SC', 'Source Han Sans SC', sans-serif" font-size="7.6" fill="#666666" text-anchor="end" opacity="1.0">投射值</text>
  <text x="337.0" y="134.0" font-family="'Noto Sans CJK SC', 'Source Han Sans SC', sans-serif" font-size="7.6" fill="#666666" text-anchor="middle" opacity="1.0">失效情形：投射假设不成立</text>
  <text x="120.0" y="163.0" font-family="'Noto Sans CJK SC', 'Source Han Sans SC', sans-serif" font-size="8.8" font-weight="bold" fill="#222222" text-anchor="middle" opacity="1.0">三、有无对比</text>
  <defs><marker id="ah43" markerWidth="6" markerHeight="6" refX="5.2" refY="3" orient="auto"><path d="M0,0.6 L5.6,3 L0,5.4 z" fill="#333333"/></marker></defs>
  <line x1="44.0" y1="252.0" x2="44.0" y2="162.0" stroke="#333333" stroke-width="1.1" marker-end="url(#ah43)"/>
  <defs><marker id="ah45" markerWidth="6" markerHeight="6" refX="5.2" refY="3" orient="auto"><path d="M0,0.6 L5.6,3 L0,5.4 z" fill="#333333"/></marker></defs>
  <line x1="44.0" y1="252.0" x2="220.0" y2="252.0" stroke="#333333" stroke-width="1.1" marker-end="url(#ah45)"/>
  <line x1="129.0" y1="162.0" x2="129.0" y2="252.0" stroke="#1A3A5C" stroke-width="1.2" stroke-dasharray="3.2,2.4" opacity="1.0"/>
  <text x="218.0" y="265.0" font-family="'Noto Sans CJK SC', 'Source Han Sans SC', sans-serif" font-size="7.6" fill="#666666" text-anchor="end" opacity="1.0">时间</text>
  <line x1="44.0" y1="228.5" x2="95.0" y2="223.4" stroke="#333333" stroke-width="1.4" opacity="1.0"/>
  <line x1="95.0" y1="223.4" x2="125.6" y2="218.4" stroke="#333333" stroke-width="1.4" opacity="1.0"/>
  <line x1="125.6" y1="218.4" x2="132.4" y2="213.4" stroke="#333333" stroke-width="1.4" opacity="1.0"/>
  <line x1="132.4" y1="213.4" x2="171.5" y2="201.6" stroke="#333333" stroke-width="1.4" opacity="1.0"/>
  <line x1="171.5" y1="201.6" x2="214.0" y2="191.5" stroke="#333333" stroke-width="1.4" opacity="1.0"/>
  <line x1="44.0" y1="228.5" x2="95.0" y2="224.3" stroke="#333333" stroke-width="1.4" opacity="1.0"/>
  <line x1="95.0" y1="224.3" x2="125.6" y2="220.9" stroke="#333333" stroke-width="1.4" opacity="1.0"/>
  <line x1="125.6" y1="220.9" x2="132.4" y2="219.2" stroke="#333333" stroke-width="1.4" opacity="1.0"/>
  <line x1="132.4" y1="219.2" x2="171.5" y2="215.0" stroke="#333333" stroke-width="1.4" opacity="1.0"/>
  <line x1="171.5" y1="215.0" x2="214.0" y2="211.7" stroke="#333333" stroke-width="1.4" opacity="1.0"/>
  <text x="146.0" y="199.1" font-family="'Noto Sans CJK SC', 'Source Han Sans SC', sans-serif" font-size="7.6" fill="#222222" text-anchor="middle" opacity="1.0">政策对象</text>
  <text x="146.0" y="226.8" font-family="'Noto Sans CJK SC', 'Source Han Sans SC', sans-serif" font-size="7.6" fill="#222222" text-anchor="middle" opacity="1.0">非政策对象</text>
  <defs><marker id="ah61" markerWidth="6" markerHeight="6" refX="5.2" refY="3" orient="auto"><path d="M0,0.6 L5.6,3 L0,5.4 z" fill="#1A3A5C"/></marker></defs>
  <line x1="203.8" y1="212.7" x2="203.8" y2="193.7" stroke="#1A3A5C" stroke-width="1.2" marker-end="url(#ah61)"/>
  <defs><marker id="ah63" markerWidth="6" markerHeight="6" refX="5.2" refY="3" orient="auto"><path d="M0,0.6 L5.6,3 L0,5.4 z" fill="#1A3A5C"/></marker></defs>
  <line x1="203.8" y1="193.7" x2="203.8" y2="212.7" stroke="#1A3A5C" stroke-width="1.2" marker-end="url(#ah63)"/>
  <text x="201.2" y="201.6" font-family="'Noto Sans CJK SC', 'Source Han Sans SC', sans-serif" font-size="7.8" fill="#1A3A5C" text-anchor="end" opacity="1.0">效果</text>
  <text x="129.0" y="282.0" font-family="'Noto Sans CJK SC', 'Source Han Sans SC', sans-serif" font-size="7.6" fill="#666666" text-anchor="middle" opacity="1.0">失效情形：两组在政策前不可比</text>
  <text x="328.0" y="163.0" font-family="'Noto Sans CJK SC', 'Source Han Sans SC', sans-serif" font-size="8.8" font-weight="bold" fill="#222222" text-anchor="middle" opacity="1.0">四、实验对比</text>
  <defs><marker id="ah68" markerWidth="6" markerHeight="6" refX="5.2" refY="3" orient="auto"><path d="M0,0.6 L5.6,3 L0,5.4 z" fill="#333333"/></marker></defs>
  <line x1="252.0" y1="252.0" x2="252.0" y2="162.0" stroke="#333333" stroke-width="1.1" marker-end="url(#ah68)"/>
  <defs><marker id="ah70" markerWidth="6" markerHeight="6" refX="5.2" refY="3" orient="auto"><path d="M0,0.6 L5.6,3 L0,5.4 z" fill="#333333"/></marker></defs>
  <line x1="252.0" y1="252.0" x2="428.0" y2="252.0" stroke="#333333" stroke-width="1.1" marker-end="url(#ah70)"/>
  <line x1="337.0" y1="162.0" x2="337.0" y2="252.0" stroke="#1A3A5C" stroke-width="1.2" stroke-dasharray="3.2,2.4" opacity="1.0"/>
  <text x="426.0" y="265.0" font-family="'Noto Sans CJK SC', 'Source Han Sans SC', sans-serif" font-size="7.6" fill="#666666" text-anchor="end" opacity="1.0">时间</text>
  <line x1="252.0" y1="226.8" x2="294.5" y2="224.3" stroke="#333333" stroke-width="1.4" opacity="1.0"/>
  <line x1="294.5" y1="224.3" x2="333.6" y2="221.8" stroke="#333333" stroke-width="1.4" opacity="1.0"/>
  <line x1="333.6" y1="221.8" x2="340.4" y2="216.7" stroke="#333333" stroke-width="1.4" opacity="1.0"/>
  <line x1="340.4" y1="216.7" x2="379.5" y2="205.0" stroke="#333333" stroke-width="1.4" opacity="1.0"/>
  <line x1="379.5" y1="205.0" x2="422.0" y2="193.2" stroke="#333333" stroke-width="1.4" opacity="1.0"/>
  <line x1="252.0" y1="226.8" x2="294.5" y2="224.3" stroke="#333333" stroke-width="1.4" opacity="1.0"/>
  <line x1="294.5" y1="224.3" x2="333.6" y2="221.8" stroke="#333333" stroke-width="1.4" opacity="1.0"/>
  <line x1="333.6" y1="221.8" x2="340.4" y2="221.3" stroke="#333333" stroke-width="1.4" opacity="1.0"/>
  <line x1="340.4" y1="221.3" x2="379.5" y2="220.1" stroke="#333333" stroke-width="1.4" opacity="1.0"/>
  <line x1="379.5" y1="220.1" x2="422.0" y2="216.7" stroke="#333333" stroke-width="1.4" opacity="1.0"/>
  <text x="334.4" y="235.2" font-family="'Noto Sans CJK SC', 'Source Han Sans SC', sans-serif" font-size="7.6" fill="#666666" text-anchor="end" opacity="1.0">随机分配</text>
  <text x="354.0" y="199.9" font-family="'Noto Sans CJK SC', 'Source Han Sans SC', sans-serif" font-size="7.6" fill="#222222" text-anchor="middle" opacity="1.0">处理组</text>
  <text x="354.0" y="229.3" font-family="'Noto Sans CJK SC', 'Source Han Sans SC', sans-serif" font-size="7.6" fill="#222222" text-anchor="middle" opacity="1.0">控制组</text>
  <defs><marker id="ah87" markerWidth="6" markerHeight="6" refX="5.2" refY="3" orient="auto"><path d="M0,0.6 L5.6,3 L0,5.4 z" fill="#1A3A5C"/></marker></defs>
  <line x1="411.8" y1="217.9" x2="411.8" y2="196.2" stroke="#1A3A5C" stroke-width="1.2" marker-end="url(#ah87)"/>
  <defs><marker id="ah89" markerWidth="6" markerHeight="6" refX="5.2" refY="3" orient="auto"><path d="M0,0.6 L5.6,3 L0,5.4 z" fill="#1A3A5C"/></marker></defs>
  <line x1="411.8" y1="196.2" x2="411.8" y2="217.9" stroke="#1A3A5C" stroke-width="1.2" marker-end="url(#ah89)"/>
  <text x="409.2" y="203.7" font-family="'Noto Sans CJK SC', 'Source Han Sans SC', sans-serif" font-size="7.8" fill="#1A3A5C" text-anchor="end" opacity="1.0">效果</text>
  <text x="337.0" y="282.0" font-family="'Noto Sans CJK SC', 'Source Han Sans SC', sans-serif" font-size="7.6" fill="#666666" text-anchor="middle" opacity="1.0">失效情形：随机分配难以实现</text>
  <line x1="24.0" y1="300.0" x2="46.0" y2="300.0" stroke="#333333" stroke-width="1.4" opacity="1.0"/>
  <text x="51.0" y="302.7" font-family="'Noto Sans CJK SC', 'Source Han Sans SC', sans-serif" font-size="7.8" fill="#222222" text-anchor="start" opacity="1.0">观测值</text>
  <line x1="102.0" y1="300.0" x2="124.0" y2="300.0" stroke="#8E959E" stroke-width="1.2" stroke-dasharray="3.4,2.4" opacity="1.0"/>
  <text x="129.0" y="302.7" font-family="'Noto Sans CJK SC', 'Source Han Sans SC', sans-serif" font-size="7.8" fill="#666666" text-anchor="start" opacity="1.0">反事实（若无政策）</text>
  <line x1="232.0" y1="295.0" x2="232.0" y2="305.0" stroke="#1A3A5C" stroke-width="1.2" stroke-dasharray="3.2,2.4" opacity="1.0"/>
  <text x="238.0" y="302.7" font-family="'Noto Sans CJK SC', 'Source Han Sans SC', sans-serif" font-size="7.8" fill="#1A3A5C" text-anchor="start" opacity="1.0">政策实施时点</text>
</svg>
